<svg width="0" height="0" class="hidden">
  <symbol fill="none" xmlns="http://www.w3.org/2000/svg" viewBox="0 0 24 24" id="arrow-left">
    <path d="M15 19L8 12L15 5" stroke="white" stroke-width="2" stroke-linecap="round" stroke-linejoin="round"></path>
  </symbol>
  <symbol fill="none" xmlns="http://www.w3.org/2000/svg" viewBox="0 0 24 24" id="arrow-right">
    <path d="M9 5L16 12L9 19" stroke="white" stroke-width="2" stroke-linecap="round" stroke-linejoin="round"></path>
  </symbol>
  <symbol fill="none" xmlns="http://www.w3.org/2000/svg" viewBox="0 0 32 32" id="bar-chart-lg-white">
    <path d="M24 26.6668V13.3335" stroke="white" stroke-width="2" stroke-linecap="round" stroke-linejoin="round"></path>
    <path d="M16 26.6668V5.3335" stroke="white" stroke-width="2" stroke-linecap="round" stroke-linejoin="round"></path>
    <path d="M8 26.6665V18.6665" stroke="white" stroke-width="2" stroke-linecap="round" stroke-linejoin="round"></path>
  </symbol>
  <symbol fill="none" xmlns="http://www.w3.org/2000/svg" viewBox="0 0 24 24" id="bar-chart-sm-black">
    <path d="M18 20V10" stroke="black" stroke-width="2" stroke-linecap="round" stroke-linejoin="round"></path>
    <path d="M12 20V4" stroke="black" stroke-width="2" stroke-linecap="round" stroke-linejoin="round"></path>
    <path d="M6 20V14" stroke="black" stroke-width="2" stroke-linecap="round" stroke-linejoin="round"></path>
  </symbol>
  <symbol fill="none" xmlns="http://www.w3.org/2000/svg" viewBox="0 0 24 24" id="bar-chart-sm-white">
    <path d="M18 20V10" stroke="#DEDBDB" stroke-width="2" stroke-linecap="round" stroke-linejoin="round"></path>
    <path d="M12 20V4" stroke="#DEDBDB" stroke-width="2" stroke-linecap="round" stroke-linejoin="round"></path>
    <path d="M6 20V14" stroke="#DEDBDB" stroke-width="2" stroke-linecap="round" stroke-linejoin="round"></path>
  </symbol>
  <symbol fill="none" xmlns="http://www.w3.org/2000/svg" viewBox="0 0 16 16" id="check">
    <path d="M13.3327 4L5.99935 11.3333L2.66602 8" stroke="#126935" stroke-linecap="round" stroke-linejoin="round"></path>
  </symbol>
  <symbol fill="none" xmlns="http://www.w3.org/2000/svg" viewBox="0 0 24 24" id="check-circle-green">
    <path d="M22 11.0799V11.9999C21.9988 14.1563 21.3005 16.2545 20.0093 17.9817C18.7182 19.7088 16.9033 20.9723 14.8354 21.5838C12.7674 22.1952 10.5573 22.1218 8.53447 21.3744C6.51168 20.6271 4.78465 19.246 3.61096 17.4369C2.43727 15.6279 1.87979 13.4879 2.02168 11.3362C2.16356 9.18443 2.99721 7.13619 4.39828 5.49694C5.79935 3.85768 7.69279 2.71525 9.79619 2.24001C11.8996 1.76477 14.1003 1.9822 16.07 2.85986" stroke="#25BD62" stroke-width="2" stroke-linecap="round" stroke-linejoin="round"></path>
    <path d="M22 4L12 14.01L9 11.01" stroke="#25BD62" stroke-width="2" stroke-linecap="round" stroke-linejoin="round"></path>
  </symbol>
  <symbol fill="none" xmlns="http://www.w3.org/2000/svg" viewBox="0 0 24 24" id="check-circle-white">
    <path d="M22 11.0799V11.9999C21.9988 14.1563 21.3005 16.2545 20.0093 17.9817C18.7182 19.7088 16.9033 20.9723 14.8354 21.5838C12.7674 22.1952 10.5573 22.1218 8.53447 21.3744C6.51168 20.6271 4.78465 19.246 3.61096 17.4369C2.43727 15.6279 1.87979 13.4879 2.02168 11.3362C2.16356 9.18443 2.99721 7.13619 4.39828 5.49694C5.79935 3.85768 7.69279 2.71525 9.79619 2.24001C11.8996 1.76477 14.1003 1.9822 16.07 2.85986" stroke="white" stroke-width="2" stroke-linecap="round" stroke-linejoin="round"></path>
    <path d="M22 4L12 14.01L9 11.01" stroke="white" stroke-width="2" stroke-linecap="round" stroke-linejoin="round"></path>
  </symbol>
  <symbol fill="none" xmlns="http://www.w3.org/2000/svg" viewBox="0 0 24 24" id="heart-filled-sm">
    <path d="M20.8421 4.60987C20.3313 4.09888 19.7249 3.69352 19.0574 3.41696C18.39 3.14039 17.6746 2.99805 16.9521 2.99805C16.2296 2.99805 15.5142 3.14039 14.8467 3.41696C14.1793 3.69352 13.5728 4.09888 13.0621 4.60987L12.0021 5.66987L10.9421 4.60987C9.91038 3.57818 8.51111 2.99858 7.05207 2.99858C5.59304 2.99858 4.19376 3.57818 3.16207 4.60987C2.13038 5.64156 1.55078 7.04084 1.55078 8.49987C1.55078 9.95891 2.13038 11.3582 3.16207 12.3899L4.22207 13.4499L12.0021 21.2299L19.7821 13.4499L20.8421 12.3899C21.3531 11.8791 21.7584 11.2727 22.035 10.6052C22.3115 9.93777 22.4539 9.22236 22.4539 8.49987C22.4539 7.77738 22.3115 7.06198 22.035 6.39452C21.7584 5.72706 21.3531 5.12063 20.8421 4.60987Z" fill="#FC573B" stroke="#FC573B" stroke-width="2" stroke-linecap="round" stroke-linejoin="round"></path>
  </symbol>
  <symbol fill="none" xmlns="http://www.w3.org/2000/svg" viewBox="0 0 32 32" id="heart-lg">
    <path d="M27.7881 6.14666C27.1071 5.46533 26.2985 4.92485 25.4086 4.5561C24.5187 4.18735 23.5648 3.99756 22.6015 3.99756C21.6381 3.99756 20.6843 4.18735 19.7943 4.5561C18.9044 4.92485 18.0958 5.46533 17.4148 6.14666L16.0015 7.55999L14.5881 6.14666C13.2125 4.77107 11.3468 3.99827 9.40146 3.99827C7.45608 3.99827 5.59038 4.77107 4.21479 6.14666C2.8392 7.52225 2.06641 9.38795 2.06641 11.3333C2.06641 13.2787 2.8392 15.1444 4.21479 16.52L5.62813 17.9333L16.0015 28.3067L26.3748 17.9333L27.7881 16.52C28.4695 15.839 29.0099 15.0304 29.3787 14.1405C29.7474 13.2505 29.9372 12.2966 29.9372 11.3333C29.9372 10.37 29.7474 9.41613 29.3787 8.52619C29.0099 7.63624 28.4695 6.82767 27.7881 6.14666V6.14666Z" stroke="white" stroke-width="2" stroke-linecap="round" stroke-linejoin="round"></path>
  </symbol>
  <symbol fill="none" xmlns="http://www.w3.org/2000/svg" viewBox="0 0 24 24" id="heart-sm">
    <path d="M20.8421 4.60987C20.3313 4.09888 19.7249 3.69352 19.0574 3.41696C18.39 3.14039 17.6746 2.99805 16.9521 2.99805C16.2296 2.99805 15.5142 3.14039 14.8467 3.41696C14.1793 3.69352 13.5728 4.09888 13.0621 4.60987L12.0021 5.66987L10.9421 4.60987C9.91038 3.57818 8.51111 2.99858 7.05207 2.99858C5.59304 2.99858 4.19376 3.57818 3.16207 4.60987C2.13038 5.64156 1.55078 7.04084 1.55078 8.49987C1.55078 9.95891 2.13038 11.3582 3.16207 12.3899L4.22207 13.4499L12.0021 21.2299L19.7821 13.4499L20.8421 12.3899C21.3531 11.8791 21.7584 11.2727 22.035 10.6052C22.3115 9.93777 22.4539 9.22236 22.4539 8.49987C22.4539 7.77738 22.3115 7.06198 22.035 6.39452C21.7584 5.72706 21.3531 5.12063 20.8421 4.60987V4.60987Z" stroke="#DEDBDB" stroke-width="2" stroke-linecap="round" stroke-linejoin="round"></path>
  </symbol>
  <symbol fill="none" xmlns="http://www.w3.org/2000/svg" viewBox="0 0 32 32" id="profile">
    <circle cx="16" cy="16" r="15" stroke="white" stroke-width="2"></circle>
    <circle cx="15.9994" cy="13.1557" r="4.68889" stroke="white" stroke-width="2"></circle>
    <path d="M27.3943 26.0251C25.8375 21.2443 21.5195 17.8066 16.4364 17.8066C11.3533 17.8066 7.03533 21.2443 5.47852 26.0251" stroke="white" stroke-width="2"></path>
  </symbol>
  <symbol fill="none" xmlns="http://www.w3.org/2000/svg" viewBox="0 0 24 24" id="search">
    <path d="M11 19C15.4183 19 19 15.4183 19 11C19 6.58172 15.4183 3 11 3C6.58172 3 3 6.58172 3 11C3 15.4183 6.58172 19 11 19Z" stroke="#8A8A8A" stroke-width="2" stroke-linecap="round" stroke-linejoin="round"></path>
    <path d="M21.0004 20.9999L16.6504 16.6499" stroke="#8A8A8A" stroke-width="2" stroke-linecap="round" stroke-linejoin="round"></path>
  </symbol>
  <symbol fill="none" xmlns="http://www.w3.org/2000/svg" viewBox="0 0 32 32" id="shopping-cart">
    <path d="M13 31C13.5523 31 14 30.5523 14 30C14 29.4477 13.5523 29 13 29C12.4477 29 12 29.4477 12 30C12 30.5523 12.4477 31 13 31Z" stroke="white" stroke-width="2" stroke-linecap="round" stroke-linejoin="round"></path>
    <path d="M25 31C25.5523 31 26 30.5523 26 30C26 29.4477 25.5523 29 25 29C24.4477 29 24 29.4477 24 30C24 30.5523 24.4477 31 25 31Z" stroke="white" stroke-width="2" stroke-linecap="round" stroke-linejoin="round"></path>
    <path d="M3 4H7.72727L10.8945 20.9603C11.0026 21.5434 11.2986 22.0672 11.7307 22.4401C12.1629 22.8129 12.7036 23.0109 13.2582 22.9995H24.7455C25.3001 23.0109 25.8408 22.8129 26.2729 22.4401C26.705 22.0672 27.001 21.5434 27.1091 20.9603L29 10.3332H8.90909" stroke="white" stroke-width="2" stroke-linecap="round" stroke-linejoin="round"></path>
  </symbol>
  <symbol fill="none" xmlns="http://www.w3.org/2000/svg" viewBox="0 0 24 24" id="x-black">
    <path d="M18 6L6 18" stroke="black" stroke-width="2" stroke-linecap="round" stroke-linejoin="round"></path>
    <path d="M6 6L18 18" stroke="black" stroke-width="2" stroke-linecap="round" stroke-linejoin="round"></path>
  </symbol>
  <symbol fill="none" xmlns="http://www.w3.org/2000/svg" viewBox="0 0 24 24" id="x-gray">
    <path d="M18 6L6 18" stroke="#8A8A8A" stroke-width="2" stroke-linecap="round" stroke-linejoin="round"></path>
    <path d="M6 6L18 18" stroke="#8A8A8A" stroke-width="2" stroke-linecap="round" stroke-linejoin="round"></path>
  </symbol>
</svg>